<svg width="44" height="25" viewBox="0 0 44 25" fill="none" xmlns="http://www.w3.org/2000/svg">
<path d="M0.333374 12.5C0.333374 5.87258 5.70596 0.5 12.3334 0.5H31.3334C37.9608 0.5 43.3334 5.87258 43.3334 12.5C43.3334 19.1274 37.9608 24.5 31.3334 24.5H12.3334C5.70596 24.5 0.333374 19.1274 0.333374 12.5Z" fill="url(#paint0_linear_34_1770)" fill-opacity="0.8"/>
<path d="M9.46956 16.5V7.77273H12.8105C13.4412 7.77273 13.9653 7.87216 14.3829 8.07102C14.8034 8.26705 15.1173 8.53551 15.3247 8.87642C15.5349 9.21733 15.64 9.60369 15.64 10.0355C15.64 10.3906 15.5718 10.6946 15.4355 10.9474C15.2991 11.1974 15.1159 11.4006 14.8858 11.5568C14.6556 11.7131 14.3985 11.8253 14.1144 11.8935V11.9787C14.4241 11.9957 14.721 12.0909 15.0051 12.2642C15.292 12.4347 15.5264 12.6761 15.7082 12.9886C15.89 13.3011 15.9809 13.679 15.9809 14.1222C15.9809 14.5739 15.8715 14.9801 15.6528 15.3409C15.434 15.6989 15.1045 15.9815 14.6642 16.1889C14.2238 16.3963 13.6698 16.5 13.0022 16.5H9.46956ZM11.0505 15.179H12.7508C13.3247 15.179 13.738 15.0696 13.9909 14.8509C14.2465 14.6293 14.3744 14.3452 14.3744 13.9986C14.3744 13.7401 14.3105 13.5071 14.1826 13.2997C14.0548 13.0895 13.873 12.9247 13.6372 12.8054C13.4014 12.6832 13.1201 12.6222 12.7934 12.6222H11.0505V15.179ZM11.0505 11.4844H12.6144C12.8872 11.4844 13.1329 11.4347 13.3517 11.3352C13.5704 11.233 13.7423 11.0895 13.8673 10.9048C13.9951 10.7173 14.059 10.4957 14.059 10.2401C14.059 9.90199 13.9397 9.62358 13.7011 9.40483C13.4653 9.18608 13.1144 9.0767 12.6485 9.0767H11.0505V11.4844ZM20.1858 16.6278C19.5296 16.6278 18.9628 16.4915 18.4855 16.2188C18.0111 15.9432 17.6461 15.554 17.3904 15.0511C17.1347 14.5455 17.0068 13.9503 17.0068 13.2656C17.0068 12.5923 17.1347 12.0014 17.3904 11.4929C17.6489 10.9815 18.0097 10.5838 18.4728 10.2997C18.9358 10.0128 19.4799 9.86932 20.1049 9.86932C20.5083 9.86932 20.8889 9.93466 21.2469 10.0653C21.6077 10.1932 21.9259 10.392 22.2014 10.6619C22.4799 10.9318 22.6986 11.2756 22.8577 11.6932C23.0168 12.108 23.0963 12.6023 23.0963 13.1761V13.6491H17.7313V12.6094H21.6176C21.6148 12.3139 21.5509 12.0511 21.4259 11.821C21.3009 11.5881 21.1262 11.4048 20.9017 11.2713C20.6801 11.1378 20.4216 11.071 20.1262 11.071C19.8108 11.071 19.5338 11.1477 19.2952 11.3011C19.0566 11.4517 18.8705 11.6506 18.737 11.8977C18.6063 12.142 18.5395 12.4105 18.5367 12.7031V13.6108C18.5367 13.9915 18.6063 14.3182 18.7455 14.5909C18.8847 14.8608 19.0793 15.0682 19.3293 15.2131C19.5793 15.3551 19.8719 15.4261 20.2071 15.4261C20.4316 15.4261 20.6347 15.3949 20.8165 15.3324C20.9983 15.267 21.156 15.1719 21.2895 15.0469C21.423 14.9219 21.5239 14.767 21.5921 14.5824L23.0324 14.7443C22.9415 15.125 22.7682 15.4574 22.5125 15.7415C22.2597 16.0227 21.9358 16.2415 21.5409 16.3977C21.1461 16.5511 20.6943 16.6278 20.1858 16.6278ZM27.6698 9.95455V11.1477H23.9071V9.95455H27.6698ZM24.836 8.38636H26.3787V14.5312C26.3787 14.7386 26.4099 14.8977 26.4724 15.0085C26.5377 15.1165 26.623 15.1903 26.7281 15.2301C26.8332 15.2699 26.9497 15.2898 27.0775 15.2898C27.1741 15.2898 27.2622 15.2827 27.3417 15.2685C27.4241 15.2543 27.4866 15.2415 27.5292 15.2301L27.7892 16.4361C27.7068 16.4645 27.5889 16.4957 27.4355 16.5298C27.2849 16.5639 27.1002 16.5838 26.8815 16.5895C26.4951 16.6009 26.1471 16.5426 25.8375 16.4148C25.5278 16.2841 25.2821 16.0824 25.1002 15.8097C24.9213 15.5369 24.8332 15.196 24.836 14.7869V8.38636ZM30.8435 16.6321C30.4287 16.6321 30.0551 16.5582 29.7228 16.4105C29.3932 16.2599 29.1318 16.0384 28.9387 15.7457C28.7483 15.4531 28.6532 15.0923 28.6532 14.6634C28.6532 14.294 28.7213 13.9886 28.8577 13.7472C28.9941 13.5057 29.1801 13.3125 29.4159 13.1676C29.6517 13.0227 29.9174 12.9134 30.2128 12.8395C30.5111 12.7628 30.8193 12.7074 31.1375 12.6733C31.5211 12.6335 31.8321 12.598 32.0708 12.5668C32.3094 12.5327 32.4827 12.4815 32.5907 12.4134C32.7014 12.3423 32.7568 12.233 32.7568 12.0852V12.0597C32.7568 11.7386 32.6617 11.4901 32.4713 11.3139C32.281 11.1378 32.0068 11.0497 31.6489 11.0497C31.2711 11.0497 30.9713 11.1321 30.7497 11.2969C30.531 11.4616 30.3833 11.6562 30.3066 11.8807L28.8662 11.6761C28.9799 11.2784 29.1674 10.946 29.4287 10.679C29.6901 10.4091 30.0097 10.2074 30.3875 10.0739C30.7654 9.9375 31.183 9.86932 31.6404 9.86932C31.9557 9.86932 32.2696 9.90625 32.5821 9.98011C32.8946 10.054 33.1801 10.1761 33.4387 10.3466C33.6972 10.5142 33.9046 10.7429 34.0608 11.0327C34.2199 11.3224 34.2995 11.6847 34.2995 12.1193V16.5H32.8165V15.6009H32.7654C32.6716 15.7827 32.5395 15.9531 32.3691 16.1122C32.2014 16.2685 31.9898 16.3949 31.7341 16.4915C31.4813 16.5852 31.1844 16.6321 30.8435 16.6321ZM31.2441 15.4986C31.5537 15.4986 31.8222 15.4375 32.0495 15.3153C32.2767 15.1903 32.4514 15.0256 32.5736 14.821C32.6986 14.6165 32.7611 14.3935 32.7611 14.152V13.3807C32.7128 13.4205 32.6304 13.4574 32.5139 13.4915C32.4003 13.5256 32.2725 13.5554 32.1304 13.581C31.9884 13.6065 31.8478 13.6293 31.7086 13.6491C31.5693 13.669 31.4486 13.6861 31.3463 13.7003C31.1162 13.7315 30.9103 13.7827 30.7284 13.8537C30.5466 13.9247 30.4032 14.0241 30.298 14.152C30.1929 14.277 30.1404 14.4389 30.1404 14.6378C30.1404 14.9219 30.2441 15.1364 30.4514 15.2812C30.6588 15.4261 30.923 15.4986 31.2441 15.4986Z" fill="white"/>
<defs>
<linearGradient id="paint0_linear_34_1770" x1="0.333374" y1="12.5" x2="39.6824" y2="12.5" gradientUnits="userSpaceOnUse">
<stop stop-color="#112CBC"/>
<stop offset="1" stop-color="#8D2895"/>
</linearGradient>
</defs>
</svg>
