<svg width="21" height="21" viewBox="0 0 21 21" fill="none" xmlns="http://www.w3.org/2000/svg">
<path d="M1.75 7.89844C1.75 5.79824 1.75 4.74814 2.15873 3.94597C2.51825 3.24037 3.09193 2.66669 3.79754 2.30716C4.5997 1.89844 5.6498 1.89844 7.75 1.89844H13.25C15.3502 1.89844 16.4003 1.89844 17.2025 2.30716C17.9081 2.66669 18.4817 3.24037 18.8413 3.94597C19.25 4.74814 19.25 5.79824 19.25 7.89844V13.3984C19.25 15.4986 19.25 16.5487 18.8413 17.3509C18.4817 18.0565 17.9081 18.6302 17.2025 18.9897C16.4003 19.3984 15.3502 19.3984 13.25 19.3984H7.75C5.6498 19.3984 4.5997 19.3984 3.79754 18.9897C3.09193 18.6302 2.51825 18.0565 2.15873 17.3509C1.75 16.5487 1.75 15.4986 1.75 13.3984V7.89844Z" fill="white"/>
<path d="M15.672 6.9151C14.7259 6.1151 13.5906 5.7151 12.3922 5.64844L12.203 5.84844C13.2752 6.1151 14.2213 6.64844 15.1044 7.38177C14.0321 6.78177 12.8337 6.38177 11.5722 6.24844C11.1938 6.18177 10.8784 6.18177 10.5 6.18177C10.1216 6.18177 9.80619 6.18177 9.42775 6.24844C8.16628 6.38177 6.96789 6.78177 5.89564 7.38177C6.77867 6.64844 7.72477 6.1151 8.79702 5.84844L8.6078 5.64844C7.4094 5.7151 6.27408 6.1151 5.32798 6.9151C4.25573 9.04844 3.68807 11.4484 3.625 13.9151C4.5711 14.9818 5.89564 15.6484 7.28326 15.6484C7.28326 15.6484 7.72477 15.1151 8.04014 14.6484C7.22018 14.4484 6.4633 13.9818 5.95872 13.2484C6.40023 13.5151 6.84174 13.7818 7.28326 13.9818C7.85092 14.2484 8.41858 14.3818 8.98624 14.5151C9.49083 14.5818 9.99541 14.6484 10.5 14.6484C11.0046 14.6484 11.5092 14.5818 12.0138 14.5151C12.5814 14.3818 13.1491 14.2484 13.7167 13.9818C14.1583 13.7818 14.5998 13.5151 15.0413 13.2484C14.5367 13.9818 13.7798 14.4484 12.9599 14.6484C13.2752 15.1151 13.7167 15.6484 13.7167 15.6484C15.1044 15.6484 16.4289 14.9818 17.375 13.9151C17.3119 11.4484 16.7443 9.04844 15.672 6.9151ZM8.41858 12.7151C7.78784 12.7151 7.22018 12.1151 7.22018 11.3818C7.22018 10.6484 7.78784 10.0484 8.41858 10.0484C9.04931 10.0484 9.61697 10.6484 9.61697 11.3818C9.61697 12.1151 9.04931 12.7151 8.41858 12.7151ZM12.5814 12.7151C11.9507 12.7151 11.383 12.1151 11.383 11.3818C11.383 10.6484 11.9507 10.0484 12.5814 10.0484C13.2122 10.0484 13.7798 10.6484 13.7798 11.3818C13.7798 12.1151 13.2122 12.7151 12.5814 12.7151Z" fill="#475467"/>
</svg>
