<svg width="18" height="16" viewBox="0 0 18 16" fill="none" xmlns="http://www.w3.org/2000/svg">
<path d="M5.86796 15.1484C3.84609 15.1484 1.96136 14.5604 0.375 13.5457C1.72187 13.6329 4.09879 13.4241 5.57724 12.0139C3.35317 11.9119 2.35016 10.2061 2.21934 9.47716C2.40831 9.55006 3.30956 9.63754 3.81834 9.43343C1.25994 8.79195 0.867455 6.54676 0.954673 5.86155C1.43437 6.19687 2.24841 6.3135 2.56821 6.28434C0.184246 4.57858 1.04189 2.01266 1.46345 1.45866C3.17426 3.82885 5.73825 5.16004 8.91024 5.23409C8.85043 4.97179 8.81885 4.6987 8.81885 4.41821C8.81885 2.40526 10.4459 0.773438 12.4529 0.773438C13.5016 0.773438 14.4465 1.21891 15.1098 1.93146C15.8106 1.76725 16.8652 1.38285 17.3808 1.05044C17.1209 1.9835 16.3118 2.76187 15.8224 3.05036C15.8185 3.0405 15.8265 3.06017 15.8224 3.05036C16.2523 2.98533 17.4155 2.76179 17.875 2.45003C17.6478 2.97422 16.79 3.84577 16.0861 4.3337C16.217 10.1097 11.7978 15.1484 5.86796 15.1484Z" fill="white"/>
</svg>
