<?xml version="1.0" encoding="UTF-8" standalone="no"?>
<!DOCTYPE svg PUBLIC "-//W3C//DTD SVG 1.1//EN" "http://www.w3.org/Graphics/SVG/1.1/DTD/svg11.dtd">
<svg width="100%" height="100%" viewBox="0 0 400 400" version="1.1" xmlns="http://www.w3.org/2000/svg" xmlns:xlink="http://www.w3.org/1999/xlink" xml:space="preserve" xmlns:serif="http://www.serif.com/" style="fill-rule:evenodd;clip-rule:evenodd;stroke-linejoin:round;stroke-miterlimit:2;">
    <g transform="matrix(2.25196,0,0,2.25196,143.701,145.953)">
        <path d="M18.5,42L18.5,37.5L12,37.5L12,34.5L16.5,34.5L16.5,13.5L12,13.5L12,10.5L18.5,10.5L18.5,6L21.5,6L21.5,10.5L27,10.5L27,6L30,6L30,10.65C31.8,11.017 33.25,11.9 34.35,13.3C35.45,14.7 36,16.267 36,18C36,18.933 35.817,19.858 35.45,20.775C35.083,21.692 34.55,22.517 33.85,23.25C35.15,23.917 36.167,24.858 36.9,26.075C37.633,27.292 38,28.6 38,30C38,32.067 37.275,33.833 35.825,35.3C34.375,36.767 32.6,37.5 30.5,37.5L30,37.5L30,42L27,42L27,37.5L21.5,37.5L21.5,42L18.5,42ZM19.5,22.5L28.5,22.5C29.767,22.5 30.833,22.058 31.7,21.175C32.567,20.292 33,19.233 33,18C33,16.733 32.567,15.667 31.7,14.8C30.833,13.933 29.767,13.5 28.5,13.5L19.5,13.5L19.5,22.5ZM19.5,34.5L30.5,34.5C31.767,34.5 32.833,34.058 33.7,33.175C34.567,32.292 35,31.233 35,30C35,28.733 34.567,27.667 33.7,26.8C32.833,25.933 31.767,25.5 30.5,25.5L19.5,25.5L19.5,34.5Z" style="fill:rgb(255,187,17);fill-rule:nonzero;"/>
    </g>
    <g transform="matrix(2.25196,0,0,2.25196,-56.299,-54.0471)">
        <path d="M18.5,42L18.5,37.5L12,37.5L12,34.5L16.5,34.5L16.5,13.5L12,13.5L12,10.5L18.5,10.5L18.5,6L21.5,6L21.5,10.5L27,10.5L27,6L30,6L30,10.65C31.8,11.017 33.25,11.9 34.35,13.3C35.45,14.7 36,16.267 36,18C36,18.933 35.817,19.858 35.45,20.775C35.083,21.692 34.55,22.517 33.85,23.25C35.15,23.917 36.167,24.858 36.9,26.075C37.633,27.292 38,28.6 38,30C38,32.067 37.275,33.833 35.825,35.3C34.375,36.767 32.6,37.5 30.5,37.5L30,37.5L30,42L27,42L27,37.5L21.5,37.5L21.5,42L18.5,42ZM19.5,22.5L28.5,22.5C29.767,22.5 30.833,22.058 31.7,21.175C32.567,20.292 33,19.233 33,18C33,16.733 32.567,15.667 31.7,14.8C30.833,13.933 29.767,13.5 28.5,13.5L19.5,13.5L19.5,22.5ZM19.5,34.5L30.5,34.5C31.767,34.5 32.833,34.058 33.7,33.175C34.567,32.292 35,31.233 35,30C35,28.733 34.567,27.667 33.7,26.8C32.833,25.933 31.767,25.5 30.5,25.5L19.5,25.5L19.5,34.5Z" style="fill:rgb(255,187,17);fill-rule:nonzero;"/>
    </g>
    <g transform="matrix(2.25196,0,0,2.25196,-56.299,345.953)">
        <path d="M18.5,42L18.5,37.5L12,37.5L12,34.5L16.5,34.5L16.5,13.5L12,13.5L12,10.5L18.5,10.5L18.5,6L21.5,6L21.5,10.5L27,10.5L27,6L30,6L30,10.65C31.8,11.017 33.25,11.9 34.35,13.3C35.45,14.7 36,16.267 36,18C36,18.933 35.817,19.858 35.45,20.775C35.083,21.692 34.55,22.517 33.85,23.25C35.15,23.917 36.167,24.858 36.9,26.075C37.633,27.292 38,28.6 38,30C38,32.067 37.275,33.833 35.825,35.3C34.375,36.767 32.6,37.5 30.5,37.5L30,37.5L30,42L27,42L27,37.5L21.5,37.5L21.5,42L18.5,42ZM19.5,22.5L28.5,22.5C29.767,22.5 30.833,22.058 31.7,21.175C32.567,20.292 33,19.233 33,18C33,16.733 32.567,15.667 31.7,14.8C30.833,13.933 29.767,13.5 28.5,13.5L19.5,13.5L19.5,22.5ZM19.5,34.5L30.5,34.5C31.767,34.5 32.833,34.058 33.7,33.175C34.567,32.292 35,31.233 35,30C35,28.733 34.567,27.667 33.7,26.8C32.833,25.933 31.767,25.5 30.5,25.5L19.5,25.5L19.5,34.5Z" style="fill:rgb(255,187,17);fill-rule:nonzero;"/>
    </g>
    <g transform="matrix(2.25196,0,0,2.25196,343.701,-54.0471)">
        <path d="M18.5,42L18.5,37.5L12,37.5L12,34.5L16.5,34.5L16.5,13.5L12,13.5L12,10.5L18.5,10.5L18.5,6L21.5,6L21.5,10.5L27,10.5L27,6L30,6L30,10.65C31.8,11.017 33.25,11.9 34.35,13.3C35.45,14.7 36,16.267 36,18C36,18.933 35.817,19.858 35.45,20.775C35.083,21.692 34.55,22.517 33.85,23.25C35.15,23.917 36.167,24.858 36.9,26.075C37.633,27.292 38,28.6 38,30C38,32.067 37.275,33.833 35.825,35.3C34.375,36.767 32.6,37.5 30.5,37.5L30,37.5L30,42L27,42L27,37.5L21.5,37.5L21.5,42L18.5,42ZM19.5,22.5L28.5,22.5C29.767,22.5 30.833,22.058 31.7,21.175C32.567,20.292 33,19.233 33,18C33,16.733 32.567,15.667 31.7,14.8C30.833,13.933 29.767,13.5 28.5,13.5L19.5,13.5L19.5,22.5ZM19.5,34.5L30.5,34.5C31.767,34.5 32.833,34.058 33.7,33.175C34.567,32.292 35,31.233 35,30C35,28.733 34.567,27.667 33.7,26.8C32.833,25.933 31.767,25.5 30.5,25.5L19.5,25.5L19.5,34.5Z" style="fill:rgb(255,187,17);fill-rule:nonzero;"/>
    </g>
    <g transform="matrix(2.25196,0,0,2.25196,343.701,345.923)">
        <path d="M18.5,42L18.5,37.5L12,37.5L12,34.5L16.5,34.5L16.5,13.5L12,13.5L12,10.5L18.5,10.5L18.5,6L21.5,6L21.5,10.5L27,10.5L27,6L30,6L30,10.65C31.8,11.017 33.25,11.9 34.35,13.3C35.45,14.7 36,16.267 36,18C36,18.933 35.817,19.858 35.45,20.775C35.083,21.692 34.55,22.517 33.85,23.25C35.15,23.917 36.167,24.858 36.9,26.075C37.633,27.292 38,28.6 38,30C38,32.067 37.275,33.833 35.825,35.3C34.375,36.767 32.6,37.5 30.5,37.5L30,37.5L30,42L27,42L27,37.5L21.5,37.5L21.5,42L18.5,42ZM19.5,22.5L28.5,22.5C29.767,22.5 30.833,22.058 31.7,21.175C32.567,20.292 33,19.233 33,18C33,16.733 32.567,15.667 31.7,14.8C30.833,13.933 29.767,13.5 28.5,13.5L19.5,13.5L19.5,22.5ZM19.5,34.5L30.5,34.5C31.767,34.5 32.833,34.058 33.7,33.175C34.567,32.292 35,31.233 35,30C35,28.733 34.567,27.667 33.7,26.8C32.833,25.933 31.767,25.5 30.5,25.5L19.5,25.5L19.5,34.5Z" style="fill:rgb(255,187,17);fill-rule:nonzero;"/>
    </g>
</svg>
