<svg width="21" height="29" viewBox="0 0 21 29" fill="none" xmlns="http://www.w3.org/2000/svg">
<path d="M20.4359 16.3415C20.1239 15.6238 19.6434 14.9935 18.6824 14.4631C18.1856 14.1823 17.6521 13.9722 17.0973 13.8391C17.4706 13.6656 17.8139 13.4339 18.1145 13.1526C18.5563 12.7577 18.8911 12.2575 19.088 11.6986C19.2692 11.1306 19.3433 10.5338 19.3064 9.93876C19.2378 8.89036 19.0318 7.87316 18.4827 7.14303C17.9335 6.41289 17.1597 5.85125 16.1362 5.4581C15.3499 5.15856 14.5449 4.97134 13.2968 4.9027V0.915039H10.8006V4.90894H8.80369V0.915039H6.2451V4.90894H0.811523V7.90437H2.55074C3.09366 7.90437 3.46185 7.95429 3.64907 8.0479C3.82326 8.12242 3.96649 8.25464 4.0547 8.42233C4.13582 8.57834 4.17326 8.94652 4.17326 9.51441V20.3229C4.17326 20.8845 4.13582 21.2465 4.0547 21.4087C3.97357 21.571 3.92989 21.7145 3.73643 21.8019C3.54298 21.8893 3.53674 21.883 3.00006 21.883H1.35257L0.811523 24.8784H6.24073V28.8723H8.79933V24.8784H10.7963V28.8723H13.2925V24.8535C14.915 24.7724 16.0695 24.5602 16.9993 24.2107C18.2037 23.7614 19.1273 23.1062 19.7888 22.245C20.4503 21.3838 20.6625 20.067 20.7205 19.0498C20.7623 18.145 20.7186 16.978 20.4359 16.3415ZM8.79933 8.27879H10.7963V12.8967H8.79933V8.27879ZM8.79933 21.5086V15.8922H10.7963V21.5086H8.79933ZM13.2925 8.52217C13.6669 8.67818 13.9103 8.99021 14.1536 9.31471C14.422 9.67042 14.5593 10.1447 14.5593 10.6502C14.5593 11.1369 14.3783 11.555 14.0912 11.9295C13.8541 12.2353 13.6669 12.4474 13.2925 12.6222V8.52217ZM15.0897 20.1731C14.603 20.6037 14.3221 20.8034 13.7106 21.0343C13.5738 21.0825 13.4342 21.1221 13.2925 21.1529V15.9858C13.5366 16.0219 13.7741 16.0934 13.9976 16.198C14.4844 16.4039 14.9462 16.6285 15.2333 17.0217C15.5515 17.4733 15.7256 18.0107 15.7325 18.5631C15.7306 19.2433 15.5559 19.7613 15.0878 20.1731H15.0897Z" fill="white"/>
</svg>
