<?xml version="1.0" encoding="UTF-8" standalone="no"?>
<!DOCTYPE svg PUBLIC "-//W3C//DTD SVG 1.1//EN" "http://www.w3.org/Graphics/SVG/1.1/DTD/svg11.dtd">
<svg width="100%" height="100%" viewBox="0 0 48 48" version="1.1" xmlns="http://www.w3.org/2000/svg" xmlns:xlink="http://www.w3.org/1999/xlink" xml:space="preserve" xmlns:serif="http://www.serif.com/" style="fill-rule:evenodd;clip-rule:evenodd;stroke-linejoin:round;stroke-miterlimit:2;">
    <path d="M22.2,44C20.8,44 19.492,43.867 18.275,43.6C17.058,43.333 15.933,42.933 14.9,42.4C15.967,38.433 17.425,34.592 19.275,30.875C21.125,27.158 23.617,24.05 26.75,21.55C23.017,23.35 19.775,25.85 17.025,29.05C14.275,32.25 12.4,35.883 11.4,39.95C11.267,39.817 11.142,39.7 11.025,39.6C10.908,39.5 10.783,39.383 10.65,39.25C9.15,37.75 8,36.033 7.2,34.1C6.4,32.167 6,30.133 6,28C6,25.7 6.433,23.483 7.3,21.35C8.167,19.217 9.417,17.333 11.05,15.7C13.617,13.067 16.95,11.358 21.05,10.575C25.15,9.792 31.283,9.683 39.45,10.25C40.083,18.183 39.992,24.267 39.175,28.5C38.358,32.733 36.617,36.183 33.95,38.85C32.35,40.517 30.533,41.792 28.5,42.675C26.467,43.558 24.367,44 22.2,44Z" style="fill:white;fill-rule:nonzero;"/>
</svg>
