<?xml version="1.0" encoding="UTF-8" standalone="no"?>
<!DOCTYPE svg PUBLIC "-//W3C//DTD SVG 1.1//EN" "http://www.w3.org/Graphics/SVG/1.1/DTD/svg11.dtd">
<svg width="100%" height="100%" viewBox="0 0 48 48" version="1.1" xmlns="http://www.w3.org/2000/svg" xmlns:xlink="http://www.w3.org/1999/xlink" xml:space="preserve" xmlns:serif="http://www.serif.com/" style="fill-rule:evenodd;clip-rule:evenodd;stroke-linejoin:round;stroke-miterlimit:2;">
    <path d="M35.75,30L35.75,27L40.5,27C40.933,27 41.292,27.142 41.575,27.425C41.858,27.708 42,28.067 42,28.5C42,28.9 41.858,29.25 41.575,29.55C41.292,29.85 40.933,30 40.5,30L35.75,30ZM35.75,38L35.75,35L40.5,35C40.933,35 41.292,35.142 41.575,35.425C41.858,35.708 42,36.067 42,36.5C42,36.9 41.858,37.25 41.575,37.55C41.292,37.85 40.933,38 40.5,38L35.75,38ZM28,40C27.033,40 26.208,39.608 25.525,38.825C24.842,38.042 24.5,37.1 24.5,36L19.75,36L19.75,29L24.5,29C24.5,27.9 24.842,26.958 25.525,26.175C26.208,25.392 27.033,25 28,25L34.25,25L34.25,40L28,40ZM13.75,34C11.517,34 9.667,33.275 8.2,31.825C6.733,30.375 6,28.517 6,26.25C6,23.983 6.733,22.125 8.2,20.675C9.667,19.225 11.517,18.5 13.75,18.5L17,18.5C18.1,18.5 19,18.15 19.7,17.45C20.4,16.75 20.75,15.85 20.75,14.75C20.75,13.65 20.4,12.75 19.7,12.05C19,11.35 18.1,11 17,11L9.5,11C9.1,11 8.75,10.85 8.45,10.55C8.15,10.25 8,9.9 8,9.5C8,9.067 8.15,8.708 8.45,8.425C8.75,8.142 9.1,8 9.5,8L17,8C18.933,8 20.542,8.642 21.825,9.925C23.108,11.208 23.75,12.817 23.75,14.75C23.75,16.683 23.108,18.292 21.825,19.575C20.542,20.858 18.933,21.5 17,21.5L13.75,21.5C12.35,21.5 11.208,21.933 10.325,22.8C9.442,23.667 9,24.817 9,26.25C9,27.683 9.442,28.833 10.325,29.7C11.208,30.567 12.35,31 13.75,31L18.25,31L18.25,34L13.75,34Z" style="fill:white;fill-rule:nonzero;"/>
</svg>
