<?xml version="1.0" encoding="UTF-8" standalone="no"?>
<!DOCTYPE svg PUBLIC "-//W3C//DTD SVG 1.1//EN" "http://www.w3.org/Graphics/SVG/1.1/DTD/svg11.dtd">
<svg width="100%" height="100%" viewBox="0 0 48 48" version="1.1" xmlns="http://www.w3.org/2000/svg" xmlns:xlink="http://www.w3.org/1999/xlink" xml:space="preserve" xmlns:serif="http://www.serif.com/" style="fill-rule:evenodd;clip-rule:evenodd;stroke-linejoin:round;stroke-miterlimit:2;">
    <path d="M22.55,38.35L25.3,38.35L25.3,35.75C27.333,35.517 28.917,34.892 30.05,33.875C31.183,32.858 31.75,31.5 31.75,29.8C31.75,28.1 31.267,26.717 30.3,25.65C29.333,24.583 27.7,23.567 25.4,22.6C23.467,21.8 22.067,21.083 21.2,20.45C20.333,19.817 19.9,18.967 19.9,17.9C19.9,16.867 20.275,16.05 21.025,15.45C21.775,14.85 22.8,14.55 24.1,14.55C25.1,14.55 25.967,14.783 26.7,15.25C27.433,15.717 28.05,16.417 28.55,17.35L30.95,16.2C30.383,15.033 29.633,14.117 28.7,13.45C27.767,12.783 26.667,12.383 25.4,12.25L25.4,9.7L22.65,9.7L22.65,12.25C20.95,12.483 19.608,13.108 18.625,14.125C17.642,15.142 17.15,16.4 17.15,17.9C17.15,19.533 17.65,20.833 18.65,21.8C19.65,22.767 21.15,23.667 23.15,24.5C25.383,25.433 26.917,26.275 27.75,27.025C28.583,27.775 29,28.7 29,29.8C29,30.867 28.558,31.725 27.675,32.375C26.792,33.025 25.683,33.35 24.35,33.35C23.05,33.35 21.892,32.983 20.875,32.25C19.858,31.517 19.15,30.517 18.75,29.25L16.2,30.1C16.9,31.633 17.758,32.842 18.775,33.725C19.792,34.608 21.05,35.25 22.55,35.65L22.55,38.35ZM24,44C21.267,44 18.683,43.475 16.25,42.425C13.817,41.375 11.692,39.942 9.875,38.125C8.058,36.308 6.625,34.183 5.575,31.75C4.525,29.317 4,26.733 4,24C4,21.233 4.525,18.633 5.575,16.2C6.625,13.767 8.058,11.65 9.875,9.85C11.692,8.05 13.817,6.625 16.25,5.575C18.683,4.525 21.267,4 24,4C26.767,4 29.367,4.525 31.8,5.575C34.233,6.625 36.35,8.05 38.15,9.85C39.95,11.65 41.375,13.767 42.425,16.2C43.475,18.633 44,21.233 44,24C44,26.733 43.475,29.317 42.425,31.75C41.375,34.183 39.95,36.308 38.15,38.125C36.35,39.942 34.233,41.375 31.8,42.425C29.367,43.475 26.767,44 24,44Z" style="fill:white;fill-rule:nonzero;"/>
</svg>
